<mxfile host="app.diagrams.net" modified="2024-01-30T15:07:23.727Z" agent="Mozilla/5.0 (Windows NT 10.0; Win64; x64) AppleWebKit/537.36 (KHTML, like Gecko) Chrome/120.0.0.0 Safari/537.36" etag="d2cQjoj0rrRBCIoJW6UW" version="23.0.2" type="github">
  <diagram name="Page-1" id="_MofC5ta0yTw0Z9mFdGP">
    <mxGraphModel dx="880" dy="1560" grid="1" gridSize="10" guides="1" tooltips="1" connect="1" arrows="1" fold="1" page="1" pageScale="1" pageWidth="850" pageHeight="1100" math="0" shadow="0">
      <root>
        <mxCell id="0" />
        <mxCell id="1" parent="0" />
        <mxCell id="HUh1dlwKQfj8_lXao6Q8-71" value="" style="group" parent="1" vertex="1" connectable="0">
          <mxGeometry x="40" y="-1010" width="800" height="700" as="geometry" />
        </mxCell>
        <mxCell id="HUh1dlwKQfj8_lXao6Q8-47" value="" style="edgeStyle=orthogonalEdgeStyle;rounded=0;orthogonalLoop=1;jettySize=auto;html=1;" parent="HUh1dlwKQfj8_lXao6Q8-71" edge="1">
          <mxGeometry relative="1" as="geometry">
            <mxPoint x="440.00000000000006" y="280" as="sourcePoint" />
            <mxPoint x="440.00000000000006" y="220" as="targetPoint" />
          </mxGeometry>
        </mxCell>
        <mxCell id="HUh1dlwKQfj8_lXao6Q8-48" style="edgeStyle=orthogonalEdgeStyle;rounded=0;orthogonalLoop=1;jettySize=auto;html=1;exitX=0.5;exitY=0;exitDx=0;exitDy=0;exitPerimeter=0;" parent="HUh1dlwKQfj8_lXao6Q8-71" edge="1">
          <mxGeometry relative="1" as="geometry">
            <mxPoint x="440" y="661" as="sourcePoint" />
            <mxPoint x="440" y="581" as="targetPoint" />
          </mxGeometry>
        </mxCell>
        <mxCell id="HUh1dlwKQfj8_lXao6Q8-49" value="" style="edgeStyle=orthogonalEdgeStyle;rounded=0;orthogonalLoop=1;jettySize=auto;html=1;" parent="HUh1dlwKQfj8_lXao6Q8-71" edge="1">
          <mxGeometry relative="1" as="geometry">
            <mxPoint x="439.33000000000004" y="392" as="sourcePoint" />
            <mxPoint x="439.33000000000004" y="332" as="targetPoint" />
          </mxGeometry>
        </mxCell>
        <mxCell id="HUh1dlwKQfj8_lXao6Q8-50" value="&lt;b style=&quot;border-color: var(--border-color);&quot;&gt;&lt;font style=&quot;border-color: var(--border-color);&quot; color=&quot;#99004d&quot;&gt;Region - eu-central-1 - Frankfurt&lt;/font&gt;&lt;/b&gt;" style="sketch=0;outlineConnect=0;gradientColor=none;html=1;whiteSpace=wrap;fontSize=12;fontStyle=0;shape=mxgraph.aws4.group;grIcon=mxgraph.aws4.group_region;strokeColor=#e41b80;fillColor=none;verticalAlign=top;align=left;spacingLeft=30;fontColor=#879196;dashed=1;movable=0;resizable=0;rotatable=0;deletable=0;editable=0;locked=1;connectable=0;" parent="HUh1dlwKQfj8_lXao6Q8-71" vertex="1">
          <mxGeometry width="800" height="700" as="geometry" />
        </mxCell>
        <mxCell id="HUh1dlwKQfj8_lXao6Q8-51" value="&lt;font size=&quot;1&quot; style=&quot;&quot;&gt;&lt;b style=&quot;background-color: rgb(255, 255, 255);&quot;&gt;Subnet_Public_&lt;/b&gt;&lt;/font&gt;&lt;b style=&quot;border-color: var(--border-color); color: rgb(102, 0, 102);&quot;&gt;10.0.0.1/24&lt;/b&gt;" style="sketch=0;outlineConnect=0;gradientColor=none;html=1;whiteSpace=wrap;fontSize=12;fontStyle=0;shape=mxgraph.aws4.group;grIcon=mxgraph.aws4.group_subnet;strokeColor=#CD2334;fillColor=none;verticalAlign=top;align=left;spacingLeft=30;fontColor=#FF0080;dashed=0;container=0;" parent="HUh1dlwKQfj8_lXao6Q8-71" vertex="1">
          <mxGeometry x="130" y="90" width="180" height="130" as="geometry" />
        </mxCell>
        <mxCell id="HUh1dlwKQfj8_lXao6Q8-52" value="&lt;font size=&quot;1&quot; style=&quot;&quot;&gt;&lt;b style=&quot;background-color: rgb(255, 255, 255);&quot;&gt;Subnet_Private_&lt;/b&gt;&lt;/font&gt;&lt;b style=&quot;border-color: var(--border-color); color: rgb(102, 0, 102);&quot;&gt;10.0.0.2/24&lt;/b&gt;" style="sketch=0;outlineConnect=0;gradientColor=none;html=1;whiteSpace=wrap;fontSize=12;fontStyle=0;shape=mxgraph.aws4.group;grIcon=mxgraph.aws4.group_subnet;strokeColor=#CD2334;fillColor=none;verticalAlign=top;align=left;spacingLeft=30;fontColor=#FF0080;dashed=0;container=0;" parent="HUh1dlwKQfj8_lXao6Q8-71" vertex="1">
          <mxGeometry x="350" y="90" width="180" height="130" as="geometry" />
        </mxCell>
        <mxCell id="HUh1dlwKQfj8_lXao6Q8-53" value="&lt;font size=&quot;1&quot; style=&quot;&quot;&gt;&lt;b style=&quot;background-color: rgb(255, 255, 255);&quot;&gt;Subnet_Mgmt_&lt;/b&gt;&lt;/font&gt;&lt;b style=&quot;border-color: var(--border-color); color: rgb(102, 0, 102);&quot;&gt;10.0.0.3/24&lt;/b&gt;" style="sketch=0;outlineConnect=0;gradientColor=none;html=1;whiteSpace=wrap;fontSize=12;fontStyle=0;shape=mxgraph.aws4.group;grIcon=mxgraph.aws4.group_subnet;strokeColor=#CD2334;fillColor=none;verticalAlign=top;align=left;spacingLeft=30;fontColor=#FF0080;dashed=0;container=0;" parent="HUh1dlwKQfj8_lXao6Q8-71" vertex="1">
          <mxGeometry x="570" y="90" width="180" height="130" as="geometry" />
        </mxCell>
        <mxCell id="HUh1dlwKQfj8_lXao6Q8-54" value="&lt;font style=&quot;font-size: 12px;&quot;&gt;&lt;b style=&quot;font-size: 12px;&quot;&gt;Security&lt;br&gt;&amp;nbsp;Group&lt;/b&gt;&lt;/font&gt;" style="image;sketch=0;aspect=fixed;html=1;points=[];align=center;fontSize=12;image=img/lib/mscae/Network_Security_Groups_Classic.svg;container=0;" parent="HUh1dlwKQfj8_lXao6Q8-71" vertex="1">
          <mxGeometry x="255" y="126.48000000000002" width="38.3" height="51.76" as="geometry" />
        </mxCell>
        <mxCell id="HUh1dlwKQfj8_lXao6Q8-55" value="Internet Gateway" style="outlineConnect=0;dashed=0;verticalLabelPosition=bottom;verticalAlign=top;align=center;html=1;shape=mxgraph.aws3.internet_gateway;fillColor=#F58534;gradientColor=none;fontStyle=1;fontSize=10;container=0;" parent="HUh1dlwKQfj8_lXao6Q8-71" vertex="1">
          <mxGeometry x="410" y="618" width="60" height="60" as="geometry" />
        </mxCell>
        <mxCell id="HUh1dlwKQfj8_lXao6Q8-56" value="Route Table" style="sketch=0;aspect=fixed;pointerEvents=1;shadow=0;dashed=0;html=1;strokeColor=none;labelPosition=center;verticalLabelPosition=bottom;verticalAlign=top;align=center;fillColor=#00188D;shape=mxgraph.mscae.enterprise.router;container=0;" parent="HUh1dlwKQfj8_lXao6Q8-71" vertex="1">
          <mxGeometry x="410" y="390" width="60" height="46.8" as="geometry" />
        </mxCell>
        <mxCell id="HUh1dlwKQfj8_lXao6Q8-57" value="Network ACL" style="outlineConnect=0;dashed=0;verticalLabelPosition=bottom;verticalAlign=top;align=center;html=1;shape=mxgraph.aws3.network_access_controllist;fillColor=#F58534;gradientColor=none;fontSize=10;fontStyle=1;container=0;" parent="HUh1dlwKQfj8_lXao6Q8-71" vertex="1">
          <mxGeometry x="413" y="259" width="55" height="56" as="geometry" />
        </mxCell>
        <mxCell id="HUh1dlwKQfj8_lXao6Q8-58" value="Web Server" style="image;aspect=fixed;perimeter=ellipsePerimeter;html=1;align=center;shadow=0;dashed=0;spacingTop=3;image=img/lib/active_directory/web_server.svg;fontStyle=1;container=0;" parent="HUh1dlwKQfj8_lXao6Q8-71" vertex="1">
          <mxGeometry x="160" y="128.24" width="40" height="50" as="geometry" />
        </mxCell>
        <mxCell id="HUh1dlwKQfj8_lXao6Q8-59" value="Web Server" style="image;aspect=fixed;perimeter=ellipsePerimeter;html=1;align=center;shadow=0;dashed=0;spacingTop=3;image=img/lib/active_directory/web_server.svg;fontStyle=1;container=0;" parent="HUh1dlwKQfj8_lXao6Q8-71" vertex="1">
          <mxGeometry x="600" y="128.24" width="40" height="50" as="geometry" />
        </mxCell>
        <mxCell id="HUh1dlwKQfj8_lXao6Q8-60" value="&lt;font style=&quot;font-size: 12px;&quot;&gt;&lt;b style=&quot;font-size: 12px;&quot;&gt;Security&lt;br&gt;&amp;nbsp;Group&lt;/b&gt;&lt;/font&gt;" style="image;sketch=0;aspect=fixed;html=1;points=[];align=center;fontSize=12;image=img/lib/mscae/Network_Security_Groups_Classic.svg;container=0;" parent="HUh1dlwKQfj8_lXao6Q8-71" vertex="1">
          <mxGeometry x="690" y="126.48000000000002" width="38.3" height="51.76" as="geometry" />
        </mxCell>
        <mxCell id="HUh1dlwKQfj8_lXao6Q8-61" value="&lt;font style=&quot;font-size: 12px;&quot;&gt;&lt;b style=&quot;font-size: 12px;&quot;&gt;Security&lt;br&gt;&amp;nbsp;Group&lt;/b&gt;&lt;/font&gt;" style="image;sketch=0;aspect=fixed;html=1;points=[];align=center;fontSize=12;image=img/lib/mscae/Network_Security_Groups_Classic.svg;container=0;" parent="HUh1dlwKQfj8_lXao6Q8-71" vertex="1">
          <mxGeometry x="468" y="128.24" width="38.3" height="51.76" as="geometry" />
        </mxCell>
        <mxCell id="HUh1dlwKQfj8_lXao6Q8-62" value="&lt;b&gt;DataBase&lt;/b&gt;" style="image;aspect=fixed;perimeter=ellipsePerimeter;html=1;align=center;shadow=0;dashed=0;spacingTop=3;image=img/lib/active_directory/database_server.svg;container=0;" parent="HUh1dlwKQfj8_lXao6Q8-71" vertex="1">
          <mxGeometry x="375" y="130" width="41" height="50" as="geometry" />
        </mxCell>
        <mxCell id="HUh1dlwKQfj8_lXao6Q8-63" value="&lt;font color=&quot;#660066&quot;&gt;&lt;b&gt;VPC - 10.0.0.0/16&lt;/b&gt;&lt;/font&gt;" style="points=[[0,0],[0.25,0],[0.5,0],[0.75,0],[1,0],[1,0.25],[1,0.5],[1,0.75],[1,1],[0.75,1],[0.5,1],[0.25,1],[0,1],[0,0.75],[0,0.5],[0,0.25]];outlineConnect=0;gradientColor=none;html=1;whiteSpace=wrap;fontSize=12;fontStyle=0;container=0;pointerEvents=0;collapsible=0;recursiveResize=0;shape=mxgraph.aws4.group;grIcon=mxgraph.aws4.group_vpc2;strokeColor=#8C4FFF;fillColor=none;verticalAlign=top;align=left;spacingLeft=30;fontColor=#AAB7B8;dashed=1;dashPattern=1 1;" parent="HUh1dlwKQfj8_lXao6Q8-71" vertex="1">
          <mxGeometry x="30" y="48.24000000000001" width="750" height="521.76" as="geometry" />
        </mxCell>
        <mxCell id="HUh1dlwKQfj8_lXao6Q8-64" value="" style="edgeStyle=orthogonalEdgeStyle;rounded=0;orthogonalLoop=1;jettySize=auto;html=1;" parent="HUh1dlwKQfj8_lXao6Q8-71" edge="1">
          <mxGeometry relative="1" as="geometry">
            <mxPoint x="207" y="292" as="sourcePoint" />
            <mxPoint x="207" y="232" as="targetPoint" />
          </mxGeometry>
        </mxCell>
        <mxCell id="HUh1dlwKQfj8_lXao6Q8-65" style="edgeStyle=orthogonalEdgeStyle;rounded=0;orthogonalLoop=1;jettySize=auto;html=1;exitX=0.5;exitY=0;exitDx=0;exitDy=0;exitPerimeter=0;" parent="HUh1dlwKQfj8_lXao6Q8-71" edge="1">
          <mxGeometry relative="1" as="geometry">
            <mxPoint x="439.5" y="540" as="sourcePoint" />
            <mxPoint x="439.5" y="460" as="targetPoint" />
          </mxGeometry>
        </mxCell>
        <mxCell id="HUh1dlwKQfj8_lXao6Q8-66" value="Router&lt;br&gt;&lt;br&gt;" style="outlineConnect=0;dashed=0;verticalLabelPosition=bottom;verticalAlign=top;align=center;html=1;shape=mxgraph.aws3.router;fillColor=#F58534;gradientColor=none;container=0;" parent="HUh1dlwKQfj8_lXao6Q8-71" vertex="1">
          <mxGeometry x="410" y="490" width="60" height="60" as="geometry" />
        </mxCell>
        <mxCell id="HUh1dlwKQfj8_lXao6Q8-67" value="" style="group" parent="HUh1dlwKQfj8_lXao6Q8-71" vertex="1" connectable="0">
          <mxGeometry x="584" y="231" width="92.08779220779229" height="61" as="geometry" />
        </mxCell>
        <mxCell id="HUh1dlwKQfj8_lXao6Q8-68" value="" style="endArrow=none;html=1;rounded=0;" parent="HUh1dlwKQfj8_lXao6Q8-67" edge="1">
          <mxGeometry width="50" height="50" relative="1" as="geometry">
            <mxPoint x="-91.84415584415592" y="61" as="sourcePoint" />
            <mxPoint x="92" y="61" as="targetPoint" />
            <Array as="points">
              <mxPoint x="12" y="61" />
              <mxPoint y="61" />
            </Array>
          </mxGeometry>
        </mxCell>
        <mxCell id="HUh1dlwKQfj8_lXao6Q8-69" value="" style="edgeStyle=orthogonalEdgeStyle;rounded=0;orthogonalLoop=1;jettySize=auto;html=1;" parent="HUh1dlwKQfj8_lXao6Q8-67" edge="1">
          <mxGeometry relative="1" as="geometry">
            <mxPoint x="92.08779220779229" y="60" as="sourcePoint" />
            <mxPoint x="92.08779220779229" as="targetPoint" />
          </mxGeometry>
        </mxCell>
        <mxCell id="HUh1dlwKQfj8_lXao6Q8-70" value="" style="endArrow=none;html=1;rounded=0;" parent="HUh1dlwKQfj8_lXao6Q8-71" edge="1">
          <mxGeometry width="50" height="50" relative="1" as="geometry">
            <mxPoint x="207.99584415584405" y="292" as="sourcePoint" />
            <mxPoint x="391.84" y="292" as="targetPoint" />
            <Array as="points">
              <mxPoint x="311.84" y="292" />
              <mxPoint x="299.84" y="292" />
            </Array>
          </mxGeometry>
        </mxCell>
        <mxCell id="lHtQrHQrWJmyTPeKCWfS-1" value="Criando uma VPC + 3 Subnets distribuídas entre uma ACL + Route Table + Route conectado com uma Internet Gateway" style="text;strokeColor=none;align=center;fillColor=none;html=1;verticalAlign=middle;whiteSpace=wrap;rounded=0;fontStyle=1;fontSize=16;" vertex="1" parent="1">
          <mxGeometry x="50" y="-1060" width="780" height="30" as="geometry" />
        </mxCell>
      </root>
    </mxGraphModel>
  </diagram>
</mxfile>
